<svg xmlns="http://www.w3.org/2000/svg" viewBox="0 0 448 512">
    
    <rect x="80" y="40" width="300" height="300" fill="white"/>

    <path fill="#447aee"
        d="M 95 0 L 400 0 C 426.51 0 448 21.49 448 48 L 448 336 C 448 362.51 426.51 384
        400 384 L 95.806 384 C 78.24 384 64 398.24 64 415.806 L 64 416.194 C 64 433.76
        78.24 448 95.806 448 L 416 448 C 433.673 448 448 462.327 448 480 C 448 497.673
        433.673 512 416 512 L 95 512 C 42.533 512 0 469.467 0 417 L 0 95 C 0 42.533 42.533
        0 95 0 Z M 145.086 266.849 C 145.086 285.589 160.321 300.824 179.061 300.824 L
        230.024 300.824 C 295.691 300.824 348.936 247.578 348.936 181.91 C 348.936 116.244
        295.691 62.998 230.024 62.998 L 179.061 62.998 C 160.321 62.998 145.086 78.233
        145.086 96.973 Z M 314.962 181.91 C 314.962 228.839 276.951 266.849 230.024 266.849
        L 179.061 266.849 L 179.061 96.973 L 230.024 96.973 C 276.951 96.973 314.962 134.983
        314.962 181.91 Z"></path>

    <path fill="#b0c8fc"
        d="M 400 384 C 405.61 384 410.996 383.038 416 381.269 L 416 448 L 95.806 448 C 78.24
        448 64 433.76 64 416.194 L 64 415.806 C 64 398.24 78.24 384 95.806 384 Z"></path>
</svg>