<?xml version="1.0" standalone="no"?>
<!DOCTYPE svg PUBLIC "-//W3C//DTD SVG 20010904//EN"
 "http://www.w3.org/TR/2001/REC-SVG-20010904/DTD/svg10.dtd">
<svg version="1.0" xmlns="http://www.w3.org/2000/svg"
 width="1024.000000pt" height="1024.000000pt" viewBox="0 0 1024.000000 1024.000000"
 preserveAspectRatio="xMidYMid meet">
<metadata>
Created by potrace 1.14, written by Peter Selinger 2001-2017
</metadata>
<g transform="translate(0.000000,1024.000000) scale(0.100000,-0.100000)"
fill="#000000" stroke="none">
<path d="M2365 10229 c-241 -26 -453 -87 -670 -195 -380 -188 -661 -469 -849
-849 -111 -224 -169 -426 -195 -684 -15 -144 -15 -6618 0 -6762 26 -258 84
-460 195 -684 188 -379 470 -661 849 -849 224 -111 426 -169 684 -195 70 -8
1138 -11 3362 -11 3607 0 3338 -5 3484 64 89 42 166 100 222 168 98 118 162
310 150 444 -26 280 -193 488 -467 580 -53 18 -171 19 -3385 24 -3220 5 -3332
6 -3380 24 -281 105 -445 332 -445 616 0 255 141 478 368 582 137 63 -119 58
3267 58 1869 0 3128 4 3187 10 390 38 717 322 826 716 l27 99 0 3015 0 3015
-28 100 c-96 350 -342 596 -692 692 l-100 28 -3165 1 c-1741 1 -3201 -2 -3245
-7z m3157 -1264 c364 -42 728 -176 1032 -379 160 -107 252 -184 396 -332 379
-389 604 -874 661 -1423 15 -143 6 -462 -15 -589 -44 -254 -111 -465 -220
-687 -310 -634 -884 -1097 -1571 -1266 -258 -63 -273 -64 -1020 -64 l-680 0
-75 23 c-96 31 -151 59 -224 116 -83 65 -151 148 -196 241 -75 153 -70 9 -70
1996 0 1737 1 1788 19 1862 51 197 179 357 358 446 138 70 136 69 843 70 502
1 662 -2 762 -14z"/>
<path d="M4227 8294 c-4 -4 -7 -767 -7 -1696 l0 -1689 628 4 627 3 115 26
c351 80 641 243 881 495 212 224 368 522 428 820 164 803 -258 1598 -1015
1913 -101 42 -230 80 -364 106 -72 14 -178 17 -685 21 -330 3 -603 1 -608 -3z"/>
</g>
</svg>
